<svg width="20" height="20" viewBox="0 0 20 20" fill="none" xmlns="http://www.w3.org/2000/svg">
<g clip-path="url(#clip0_2_726)">
<path d="M10.0002 20C15.5229 20 20 15.5226 20 10C20 4.47655 15.5233 0 10.0002 0C4.4771 0 0 4.47655 0 10C0 15.5226 4.4771 20 10.0002 20Z" fill="white"/>
<path d="M4.87246 9.99745L6.57557 8.28634C6.63202 8.22945 6.66357 8.15301 6.66357 8.07212C6.66357 7.90323 6.52668 7.76634 6.35824 7.76634C6.27602 7.76634 6.19913 7.79834 6.14135 7.85745L4.43913 9.56101L2.73024 7.85434C2.67246 7.79745 2.59602 7.76634 2.51468 7.76634C2.3458 7.76634 2.20935 7.90323 2.20935 8.07168C2.20935 8.1539 2.24224 8.23168 2.30091 8.28945L4.00402 9.99479L2.3018 11.7015C2.24224 11.761 2.20935 11.8383 2.20935 11.9206C2.20935 12.0895 2.34624 12.2263 2.51468 12.2263C2.59602 12.2263 2.67246 12.1952 2.73024 12.1375L4.43691 10.4299L6.13691 12.1308C6.19735 12.193 6.27468 12.2263 6.35824 12.2263C6.52624 12.2263 6.66313 12.0895 6.66313 11.9206C6.66313 11.8392 6.63202 11.7628 6.57424 11.705L4.87202 9.99568L4.87246 9.99745ZM14.9974 9.99701C14.9974 10.3037 15.2462 10.5526 15.5529 10.5526C15.8578 10.5526 16.1067 10.3037 16.1067 9.99701C16.1067 9.69034 15.8578 9.44145 15.5525 9.44145C15.2471 9.44145 14.9987 9.69034 14.9987 9.99701H14.9974ZM13.9462 9.99701C13.9462 9.11034 14.6662 8.38812 15.5525 8.38812C16.4369 8.38812 17.1582 9.11034 17.1582 9.99701C17.1582 10.8837 16.4374 11.6059 15.5525 11.6059C14.6667 11.6059 13.9462 10.8846 13.9462 9.99701ZM13.3142 9.99701C13.3142 11.2326 14.3187 12.2388 15.5525 12.2388C16.7862 12.2388 17.7907 11.2335 17.7907 9.99745C17.7907 8.7619 16.7862 7.75568 15.5525 7.75568C14.3182 7.75568 13.3142 8.76145 13.3142 9.99745V9.99701ZM13.1556 7.7939H13.0622C12.78 7.7939 12.508 7.88279 12.2809 8.05834C12.2498 7.92234 12.1271 7.81834 11.9814 7.81834C11.8138 7.81834 11.6791 7.9539 11.6791 8.12234L11.68 11.8979C11.68 12.0655 11.8178 12.2019 11.9845 12.2019C12.1525 12.2019 12.2894 12.0655 12.2898 11.897V9.57523C12.2898 8.8019 12.3609 8.48901 13.0222 8.40634C13.0845 8.39879 13.1502 8.40012 13.1511 8.40012C13.3316 8.39345 13.4605 8.26856 13.4605 8.10012C13.4605 7.93123 13.3227 7.79434 13.1538 7.79434L13.1556 7.7939ZM7.29513 9.62857C7.29513 9.61968 7.29602 9.61079 7.29646 9.60279C7.47335 8.90056 8.10802 8.3819 8.86313 8.3819C9.62757 8.3819 10.2676 8.91256 10.4365 9.62723H7.29468L7.29513 9.62857ZM11.0609 9.57079C10.9294 8.94723 10.5885 8.43479 10.0698 8.1059C9.31068 7.62323 8.30891 7.6499 7.57646 8.17256C6.97824 8.5979 6.63291 9.29479 6.63291 10.0126C6.63291 10.1926 6.65513 10.3743 6.69957 10.5535C6.92535 11.4423 7.68891 12.1161 8.59913 12.2277C8.86935 12.2606 9.13246 12.2455 9.40357 12.1743C9.63824 12.1166 9.86446 12.0223 10.0729 11.8881C10.2894 11.749 10.4702 11.565 10.6462 11.345C10.6489 11.3406 10.6525 11.3375 10.656 11.333C10.7778 11.1819 10.7551 10.9659 10.6218 10.8637C10.5089 10.777 10.3196 10.7419 10.1711 10.933C10.1391 10.9792 10.1031 11.0263 10.0645 11.073C9.9458 11.2041 9.79869 11.3308 9.62268 11.4295C9.3978 11.5495 9.14268 11.6175 8.87157 11.6192C7.98357 11.609 7.50891 10.9881 7.33957 10.5455C7.31024 10.4623 7.28757 10.3766 7.27157 10.2877L7.26713 10.241H10.4538C10.8902 10.2312 11.1249 9.92234 11.06 9.5699L11.0609 9.57079Z" fill="black"/>
</g>
<defs>
<clipPath id="clip0_2_726">
<rect width="20" height="20" fill="white"/>
</clipPath>
</defs>
</svg>
