<svg width="69" height="36" viewBox="0 0 69 36" fill="none" xmlns="http://www.w3.org/2000/svg">
<path d="M30.664 32V16.128H34.44L34.824 19.36H34.888C35.3147 18.464 35.8053 17.7493 36.36 17.216C36.936 16.6827 37.5867 16.3093 38.312 16.096C39.0373 15.8613 39.848 15.744 40.744 15.744V20.32H39.56C38.856 20.32 38.216 20.3947 37.64 20.544C37.0853 20.6933 36.6053 20.9493 36.2 21.312C35.816 21.6533 35.5173 22.112 35.304 22.688C35.0907 23.264 34.984 23.9787 34.984 24.832V32H30.664ZM53.5083 32L46.5963 23.264L52.7083 16.128H57.8283L49.9243 25.056L49.8923 21.632L58.8843 32H53.5083ZM42.9163 32V9.28H47.2363V32H42.9163ZM61.0153 32V16.128H65.3353V32H61.0153ZM63.1913 13.984C62.4019 13.984 61.7619 13.7493 61.2713 13.28C60.7806 12.8107 60.5353 12.224 60.5353 11.52C60.5353 10.816 60.7806 10.24 61.2713 9.792C61.7619 9.32267 62.4019 9.088 63.1913 9.088C63.9806 9.088 64.6206 9.32267 65.1113 9.792C65.6233 10.24 65.8793 10.816 65.8793 11.52C65.8793 12.224 65.6233 12.8107 65.1113 13.28C64.6206 13.7493 63.9806 13.984 63.1913 13.984Z" fill="black"/>
<rect y="4" width="28" height="28" rx="14" fill="#16110D"/>
<g clip-path="url(#clip0_2003_54)">
<rect x="3.11109" y="7.11111" width="21.7778" height="21.7778" rx="10.8889" fill="white"/>
<circle cx="18.2346" cy="23.4444" r="13.9136" fill="url(#paint0_radial_2003_54)"/>
<circle cx="11.7097" cy="15.7102" r="18.2778" fill="url(#paint1_radial_2003_54)"/>
<circle cx="18.2346" cy="12.5559" r="15.1235" fill="url(#paint2_radial_2003_54)"/>
<circle cx="7.95059" cy="22.8395" r="13.3086" fill="url(#paint3_radial_2003_54)"/>
<circle cx="13.9998" cy="18.0003" r="6.22222" fill="black"/>
</g>
<defs>
<radialGradient id="paint0_radial_2003_54" cx="0" cy="0" r="1" gradientUnits="userSpaceOnUse" gradientTransform="translate(18.9302 23.4444) rotate(56.9132) scale(23.1045)">
<stop stop-color="#AEACFF"/>
<stop offset="1" stop-color="white" stop-opacity="0"/>
</radialGradient>
<radialGradient id="paint1_radial_2003_54" cx="0" cy="0" r="1" gradientUnits="userSpaceOnUse" gradientTransform="translate(10.9751 15.5805) rotate(-140.826) scale(21.0689)">
<stop offset="0.0392985" stop-color="#2D29D7"/>
<stop offset="1" stop-color="white" stop-opacity="0"/>
</radialGradient>
<radialGradient id="paint2_radial_2003_54" cx="0" cy="0" r="1" gradientUnits="userSpaceOnUse" gradientTransform="translate(18.9907 12.5559) rotate(90) scale(12.8549)">
<stop stop-color="#F3BA2F"/>
<stop offset="1" stop-color="white" stop-opacity="0"/>
</radialGradient>
<radialGradient id="paint3_radial_2003_54" cx="0" cy="0" r="1" gradientUnits="userSpaceOnUse" gradientTransform="translate(7.95059 22.8395) rotate(86.6335) scale(11.3319)">
<stop stop-color="#37F2AD"/>
<stop offset="1" stop-color="white" stop-opacity="0"/>
</radialGradient>
<clipPath id="clip0_2003_54">
<rect x="3.11109" y="7.11111" width="21.7778" height="21.7778" rx="10.8889" fill="white"/>
</clipPath>
</defs>
</svg>
